<svg width="118" height="48" viewBox="0 0 118 48" fill="none" xmlns="http://www.w3.org/2000/svg">
<g filter="url(#filter0_d_1176_3549)">
<path d="M15.9912 6.37048H8L15.7037 37.5068L15.7328 37.6296H15.7409L19.1751 25.1104L15.9912 6.37048Z" fill="#9A024A"/>
<path d="M34.842 25.2219L30.6275 6.37048H23.2194L19.2537 24.8229L19.2747 24.7454L19.2537 24.8229L19.181 25.154L19.1745 25.1104L15.7402 37.6296H23.0595L26.9735 19.6036L30.9926 37.5036L31.0217 37.6296H38.3167L38.3538 37.4745L34.8533 25.1589L34.842 25.2219Z" fill="#C10171"/>
<path d="M45.9996 6.37048H38.0551L36.3105 16.6136L40.1568 30.1423L45.9996 6.37048Z" fill="#9A024A"/>
</g>
<g filter="url(#filter1_d_1176_3549)">
<path d="M62.102 22.03L60.32 22.588V19.294H62.228V18.052H60.32V14.452H59.06V18.052H56.828V19.294H59.06V22.984C58.106 23.272 57.26 23.524 56.576 23.722L56.918 25.018L59.06 24.316V29.32C59.06 29.59 58.97 29.644 58.754 29.644C58.556 29.662 57.836 29.662 57.062 29.644C57.242 30.022 57.404 30.562 57.458 30.886C58.592 30.904 59.276 30.85 59.69 30.634C60.14 30.418 60.32 30.058 60.32 29.32V23.902L62.264 23.272L62.102 22.03ZM68.564 17.62V20.32C68.564 21.472 68.816 21.922 70.04 21.922H71.948C72.362 21.922 72.794 21.904 73.01 21.832C72.974 21.544 72.938 21.13 72.92 20.806C72.668 20.878 72.182 20.896 71.894 20.896H70.148C69.842 20.896 69.788 20.752 69.788 20.338V17.62H71.75V19.528H72.992V16.504H68.456C68.276 15.91 67.952 15.028 67.646 14.344L66.332 14.614C66.566 15.19 66.818 15.928 66.998 16.504H62.57V19.528H63.758V17.62H65.846C65.648 19.6 64.946 20.698 62.3 21.292C62.57 21.49 62.894 21.958 63.002 22.264C65.99 21.49 66.854 20.086 67.124 17.62H68.564ZM65.648 29.284C64.91 29.284 64.478 29.122 64.478 28.726C64.478 28.222 64.928 27.484 71.066 23.596C71.174 23.524 71.246 23.452 71.3 23.362L70.454 22.876L70.148 22.912H63.182V24.064H68.186C63.398 27.268 63.182 28.132 63.182 28.888C63.182 29.896 63.938 30.49 65.702 30.49H71.012C72.524 30.49 73.046 30.076 73.19 27.358C72.812 27.286 72.38 27.124 72.038 26.926C71.984 29.032 71.75 29.284 71.084 29.284H65.648ZM82.406 25.144H83.594L83.954 18.16L83.99 16.036H82.01L82.046 18.16L82.406 25.144ZM83 29.59C83.63 29.59 84.152 29.122 84.152 28.402C84.152 27.682 83.63 27.196 83 27.196C82.37 27.196 81.848 27.682 81.848 28.402C81.848 29.122 82.352 29.59 83 29.59ZM107.084 14.812C106.058 16.252 104.222 17.746 102.638 18.628C102.98 18.862 103.376 19.276 103.61 19.546C105.266 18.538 107.12 16.936 108.326 15.334L107.084 14.812ZM107.678 19.636C106.544 21.184 104.456 22.768 102.656 23.65C102.998 23.902 103.376 24.298 103.592 24.586C105.482 23.542 107.588 21.886 108.884 20.14L107.678 19.636ZM100.73 17.062H95.276V16H100.73V17.062ZM100.73 19.042H95.276V17.944H100.73V19.042ZM102.044 15.082H93.998V19.942H102.044V15.082ZM102.656 21.094H98.732C98.57 20.716 98.336 20.302 98.12 19.978L96.896 20.284C97.04 20.518 97.184 20.806 97.31 21.094H93.116V22.174H102.656V21.094ZM94.826 26.872C94.43 27.808 93.782 28.762 93.062 29.428C93.35 29.608 93.8 29.986 94.016 30.166C94.736 29.428 95.51 28.276 95.96 27.214L94.826 26.872ZM95.402 24.028H100.532V25.54H95.402V24.028ZM101.846 26.494V23.074H94.16V26.494H97.292V29.446C97.292 29.608 97.256 29.68 97.04 29.68C96.86 29.698 96.248 29.698 95.51 29.68C95.69 30.004 95.852 30.436 95.924 30.778C96.914 30.778 97.598 30.778 98.03 30.58C98.498 30.4 98.606 30.112 98.606 29.464V26.494H101.846ZM99.524 27.322C100.136 28.15 100.82 29.284 101.144 29.986L102.152 29.464C101.828 28.762 101.108 27.682 100.46 26.872L99.524 27.322ZM108.038 24.784C106.796 26.854 104.474 28.708 102.116 29.752C102.44 30.022 102.836 30.454 103.052 30.778C105.518 29.554 107.876 27.556 109.262 25.27L108.038 24.784Z" fill="white"/>
</g>
<defs>
<filter id="filter0_d_1176_3549" x="0" y="0.370483" width="54" height="47.259" filterUnits="userSpaceOnUse" color-interpolation-filters="sRGB">
<feFlood flood-opacity="0" result="BackgroundImageFix"/>
<feColorMatrix in="SourceAlpha" type="matrix" values="0 0 0 0 0 0 0 0 0 0 0 0 0 0 0 0 0 0 127 0" result="hardAlpha"/>
<feOffset dy="2"/>
<feGaussianBlur stdDeviation="4"/>
<feComposite in2="hardAlpha" operator="out"/>
<feColorMatrix type="matrix" values="0 0 0 0 0 0 0 0 0 0 0 0 0 0 0 0 0 0 0.48 0"/>
<feBlend mode="normal" in2="BackgroundImageFix" result="effect1_dropShadow_1176_3549"/>
<feBlend mode="normal" in="SourceGraphic" in2="effect1_dropShadow_1176_3549" result="shape"/>
</filter>
<filter id="filter1_d_1176_3549" x="48.5762" y="8.34399" width="68.6855" height="32.5601" filterUnits="userSpaceOnUse" color-interpolation-filters="sRGB">
<feFlood flood-opacity="0" result="BackgroundImageFix"/>
<feColorMatrix in="SourceAlpha" type="matrix" values="0 0 0 0 0 0 0 0 0 0 0 0 0 0 0 0 0 0 127 0" result="hardAlpha"/>
<feOffset dy="2"/>
<feGaussianBlur stdDeviation="4"/>
<feComposite in2="hardAlpha" operator="out"/>
<feColorMatrix type="matrix" values="0 0 0 0 0 0 0 0 0 0 0 0 0 0 0 0 0 0 0.48 0"/>
<feBlend mode="normal" in2="BackgroundImageFix" result="effect1_dropShadow_1176_3549"/>
<feBlend mode="normal" in="SourceGraphic" in2="effect1_dropShadow_1176_3549" result="shape"/>
</filter>
</defs>
</svg>
