<svg width="18" height="18" viewBox="0 0 18 18" fill="none" xmlns="http://www.w3.org/2000/svg">
<path d="M17.2915 16.5817L17.2914 16.5817L14.6989 13.9946C16.0226 12.5349 16.8301 10.5987 16.8301 8.47749C16.8301 3.94499 13.1434 0.258289 8.61093 0.258289C4.07843 0.258289 0.390887 3.94498 0.390887 8.47749C0.390887 13.01 4.07842 16.6975 8.61093 16.6975C10.5334 16.6975 12.3037 16.0341 13.7051 14.9242L16.3316 17.5434L16.3317 17.5435C16.4647 17.6756 16.6386 17.7417 16.8115 17.7417C16.9851 17.7417 17.1599 17.6757 17.2923 17.5417C17.5577 17.2763 17.5567 16.847 17.2915 16.5817ZM1.74924 8.47749C1.74924 4.69399 4.82741 1.61664 8.61093 1.61664C12.3936 1.61664 15.4718 4.69399 15.4718 8.47749C15.4718 12.261 12.3936 15.3392 8.61093 15.3392C4.82742 15.3392 1.74924 12.261 1.74924 8.47749Z" fill="#686B72" stroke="#686B72" stroke-width="0.1"/>
</svg>
